<svg  viewBox="0 0 24 24" xmlns="http://www.w3.org/2000/svg"><path fill-rule="evenodd" clip-rule="evenodd" d="M10.94 10.158h-.155l-.018-.015-.207-.038-.09-.026-.236-.053-.109-.026-.337-.101h-.083l-.472-.128-.079-.026-.446-.124-.161-.048a7.988 7.988 0 01-.44-.128l-.16-.049-.6-.18h-.023a23.488 23.488 0 01-.697-.21l-.117-.033-.592-.188-.191-.056-.57-.176-.184-.06a89.48 89.48 0 00-.606-.193c-.272-.085-.545-.171-.82-.261 3.122-.235 8.91-.478 13.718-.679l3.105-.131-1.72.589-7.71 2.34zm5.515-.934l3.967-1.144v4.283h-8.899v-1.718l4.932-1.421zm-6.015 1.421l-.315-.064h-.06l-.352-.075-.375-.09h-.049l-.405-.097-.086-.023-.424-.105-.446-.112-.101-.023-.44-.116-.097-.022-.397-.105-.079-.02-.439-.145-.142-.038-.401-.105-.143-.041-.311-.083-.128-.03-.375-.101-.18-.049-.24-.067-.228-.06-.177-.053-.172-.045-.236-.063-.072-.02v3.47h7.163v-1.665h-.019l-.251-.042-.023-.011zM.375 13.113h23.25a.375.375 0 01.375.375v1.203a1.125 1.125 0 01-1.125 1.125h-1.35a1.875 1.875 0 01-1.837 1.5H4.313a1.875 1.875 0 01-1.838-1.5h-1.35A1.125 1.125 0 010 14.691v-1.204a.375.375 0 01.375-.374z" /></svg>
