<svg width="24" height="24" xmlns="http://www.w3.org/2000/svg"><path d="M15.5 7.79l2.32-3.675 2.32 3.675H15.5zm1.82-6.435a1 1 0 00-1-1H6.68a1 1 0 00-1 1v1.32h11.64v-1.32zM5.455 3.675L2.86 7.79h11.525a3.26 3.26 0 01.27-.5l2.26-3.59-11.46-.025zm-3 5.5v13.41a1.055 1.055 0 001.045 1.06h9.54a1.06 1.06 0 001.055-1.06V9.19c.003-.134.013-.267.03-.4H2.5c-.025.132-.04.266-.045.4v-.015zM20.5 8.79h-5.37a2.694 2.694 0 00-.035.4v13.395c0 .373-.1.74-.29 1.06H19.5a1.055 1.055 0 001.055-1.06V9.19a2.696 2.696 0 00-.055-.4z" /></svg>
