<svg viewBox="0 0 16 16" xmlns="http://www.w3.org/2000/svg"><path d="M2.75 9.75c.323 0 .583.262.583.584v4.083c0 .322-.26.584-.583.584H1.583A.583.583 0 011 14.417v-4.083c0-.322.26-.583.583-.583zm3.284.043a.583.583 0 01.628.129l.584.583a.583.583 0 010 .825l-.171.17h5.008a.583.583 0 01.413.996l-1.75 1.75a.58.58 0 01-.413.171H3.917v-3.779zM8 1v3.5l1.75-1.167L11.5 4.5V1h2.333C14.477 1 15 1.524 15 2.167v7c0 .644-.523 1.167-1.167 1.167h-5.25l-1.75-1.75-2.333.583v-7c0-.643.523-1.166 1.167-1.166H8z" fill-rule="nonzero"/></svg>
