<svg viewBox="0 0 20 20" fill="none" xmlns="http://www.w3.org/2000/svg">
  <path d="M19.9237 6.57175C19.7697 6.19875 19.4037 5.95475 18.9997 5.95475H13.6177L10.8937 0.50775C10.5547 -0.16925 9.44374 -0.16925 9.10474 0.50775L6.38174 5.95475H0.999745C0.595745 5.95475 0.229745 6.19875 0.0757448 6.57175C-0.0782552 6.94475 0.00674483 7.37675 0.292745 7.66175L4.87674 12.2457L3.03874 18.6807C2.92374 19.0837 3.07174 19.5158 3.40974 19.7628C3.74974 20.0107 4.20674 20.0198 4.55374 19.7868L9.99974 16.1567L15.4447 19.7868C15.6127 19.8988 15.8057 19.9548 15.9997 19.9548C16.2067 19.9548 16.4137 19.8908 16.5897 19.7628C16.9277 19.5158 17.0757 19.0837 16.9607 18.6807L15.1227 12.2457L19.7067 7.66175C19.9927 7.37675 20.0777 6.94475 19.9237 6.57175Z" />
</svg>
