<svg viewBox="0 0 16 16" version="1.1" xmlns="http://www.w3.org/2000/svg" xmlns:xlink="http://www.w3.org/1999/xlink">
  <path d="M11.3333333,10.6666667 C12.069713,10.6666667 12.6666667,11.2636203 12.6666667,12 C12.6666667,12.7363797 12.069713,13.3333333 11.3333333,13.3333333 C10.5969537,13.3333333 10,12.7363797 10,12 C10,11.2636203 10.5969537,10.6666667 11.3333333,10.6666667 Z M5.33333333,10.6666667 C6.069713,10.6666667 6.66666667,11.2636203 6.66666667,12 C6.66666667,12.7363797 6.069713,13.3333333 5.33333333,13.3333333 C4.59695367,13.3333333 4,12.7363797 4,12 C4,11.2636203 4.59695367,10.6666667 5.33333333,10.6666667 Z M5.33333333,4.66666667 C5.702,4.66666667 6,4.96533333 6,5.33333333 L6,5.33333333 L6,10 C6,10.0406667 5.984,10.0766667 5.97666667,10.1153333 C5.77333333,10.046 5.56,10 5.33333333,10 C4.22933333,10 3.33333333,10.896 3.33333333,12 L3.33333333,12 L2,12 C1.63133333,12 1.33333333,11.7013333 1.33333333,11.3333333 L1.33333333,11.3333333 L1.33333333,7.33333333 C1.33333333,5.86266667 2.53,4.66666667 4,4.66666667 L4,4.66666667 Z M13.3333333,2.66666667 C14.0693333,2.66666667 14.6666667,3.26466667 14.6666667,4 L14.6666667,4 L14.6666667,11.3333333 C14.6666667,11.7013333 14.3686667,12 14,12 L14,12 L13.3333333,12 C13.3333333,10.896 12.4373333,10 11.3333333,10 C10.2293333,10 9.33333333,10.896 9.33333333,12 L9.33333333,12 L7.33333333,12 C7.33333333,11.41 7.07266667,10.8853333 6.66666667,10.5193333 L6.66666667,10.5193333 L6.66666667,4 C6.66666667,3.26466667 7.264,2.66666667 8,2.66666667 L8,2.66666667 Z M4.66666667,6.66666667 L2.66666667,6.66666667 L2.66666667,8 L4.66666667,8 L4.66666667,6.66666667 Z" fill-rule="nonzero"></path>
</svg>
