<svg width="32" height="33" viewBox="0 0 32 33" fill="none" xmlns="http://www.w3.org/2000/svg">
<path d="M16 19.4768C14.5 19.4768 13.2 18.2768 13.2 16.6768C13.2 15.1768 14.4 13.8768 16 13.8768C17.5 13.8768 18.8 15.0768 18.8 16.6768C18.8 18.1768 17.5 19.4768 16 19.4768Z" fill="#F5F0EB"/>
<path fill-rule="evenodd" clip-rule="evenodd" d="M19.4 9.87675H12.6C11.8 9.97676 11.4 10.0768 11.1 10.1768C10.7 10.2768 10.4 10.4768 10.1 10.7768C9.86261 11.0141 9.75045 11.2515 9.61489 11.5385C9.57916 11.6141 9.5417 11.6933 9.5 11.7768C9.48453 11.8232 9.46667 11.872 9.44752 11.9243C9.34291 12.2101 9.2 12.6005 9.2 13.2768V20.0768C9.3 20.8768 9.4 21.2768 9.5 21.5768C9.6 21.9768 9.8 22.2768 10.1 22.5768C10.3374 22.8141 10.5748 22.9263 10.8617 23.0619C10.9374 23.0976 11.0165 23.135 11.1 23.1768C11.1464 23.1922 11.1952 23.2101 11.2475 23.2292C11.5333 23.3338 11.9238 23.4768 12.6 23.4768H19.4C20.2 23.3768 20.6 23.2768 20.9 23.1768C21.3 23.0768 21.6 22.8768 21.9 22.5768C22.1374 22.3394 22.2495 22.102 22.3851 21.8151C22.4209 21.7394 22.4583 21.6602 22.5 21.5768C22.5155 21.5303 22.5333 21.4815 22.5525 21.4292C22.6571 21.1434 22.8 20.753 22.8 20.0768V13.2768C22.7 12.4768 22.6 12.0768 22.5 11.7768C22.4 11.3768 22.2 11.0768 21.9 10.7768C21.6626 10.5394 21.4252 10.4272 21.1383 10.2916C21.0627 10.2559 20.9833 10.2184 20.9 10.1768C20.8536 10.1613 20.8048 10.1434 20.7525 10.1243C20.4667 10.0197 20.0762 9.87675 19.4 9.87675ZM16 12.3768C13.6 12.3768 11.7 14.2768 11.7 16.6768C11.7 19.0768 13.6 20.9768 16 20.9768C18.4 20.9768 20.3 19.0768 20.3 16.6768C20.3 14.2768 18.4 12.3768 16 12.3768ZM21.4 12.2768C21.4 12.829 20.9523 13.2768 20.4 13.2768C19.8477 13.2768 19.4 12.829 19.4 12.2768C19.4 11.7245 19.8477 11.2768 20.4 11.2768C20.9523 11.2768 21.4 11.7245 21.4 12.2768Z" fill="#F5F0EB"/>
<path fill-rule="evenodd" clip-rule="evenodd" d="M0 5.67676C0 2.91533 2.23858 0.676758 5 0.676758H27C29.7614 0.676758 32 2.91533 32 5.67676V27.6768C32 30.4382 29.7614 32.6768 27 32.6768H5C2.23858 32.6768 0 30.4382 0 27.6768V5.67676ZM12.6 8.37675H19.4C20.3 8.47675 20.9 8.57676 21.4 8.77676C22 9.07676 22.4 9.27676 22.9 9.77676C23.4 10.2768 23.7 10.7768 23.9 11.2768C24.1 11.7768 24.3 12.3768 24.3 13.2768V20.0768C24.2 20.9768 24.1 21.5768 23.9 22.0768C23.6 22.6768 23.4 23.0768 22.9 23.5768C22.4 24.0768 21.9 24.3768 21.4 24.5768C20.9 24.7768 20.3 24.9768 19.4 24.9768H12.6C11.7 24.8768 11.1 24.7768 10.6 24.5768C10 24.2768 9.6 24.0768 9.1 23.5768C8.6 23.0768 8.3 22.5768 8.1 22.0768C7.9 21.5768 7.7 20.9768 7.7 20.0768V13.2768C7.8 12.3768 7.9 11.7768 8.1 11.2768C8.4 10.6768 8.6 10.2768 9.1 9.77676C9.6 9.27676 10.1 8.97676 10.6 8.77676C11.1 8.57676 11.7 8.37675 12.6 8.37675Z" fill="#F5F0EB"/>
</svg>
